<svg xmlns="http://www.w3.org/2000/svg" xmlns:xlink="http://www.w3.org/1999/xlink" width="500" zoomAndPan="magnify" viewBox="0 0 375 374.999991" height="500" preserveAspectRatio="xMidYMid meet" version="1.0"><defs><clipPath id="f55ef76672"><path d="M 187.5 0 C 83.945312 0 0 83.945312 0 187.5 C 0 291.054688 83.945312 375 187.5 375 C 291.054688 375 375 291.054688 375 187.5 C 375 83.945312 291.054688 0 187.5 0 Z M 187.5 0 " clip-rule="nonzero"/></clipPath><clipPath id="b39f968fee"><path d="M 210 128 L 317.582031 128 L 317.582031 163.710938 L 210 163.710938 Z M 210 128 " clip-rule="nonzero"/></clipPath><clipPath id="58506ba408"><path d="M 176.738281 169 L 317.582031 169 L 317.582031 224.117188 L 176.738281 224.117188 Z M 176.738281 169 " clip-rule="nonzero"/></clipPath><clipPath id="5370853e32"><path d="M 57.4375 112.367188 L 312.652344 112.367188 L 312.652344 262.367188 L 57.4375 262.367188 Z M 57.4375 112.367188 " clip-rule="nonzero"/></clipPath></defs><g clip-path="url(#f55ef76672)"><rect x="-37.5" width="450" fill="#d69738" y="-37.499999" height="449.999989" fill-opacity="1"/></g><g clip-path="url(#b39f968fee)"><path fill="#ffffff" d="M 210.5 163.269531 L 317.226562 128.089844 L 274.929688 133.226562 Z M 210.5 163.269531 " fill-opacity="1" fill-rule="nonzero"/></g><path fill="#ffffff" d="M 137.65625 212.039062 L 138.011719 225.175781 L 140.585938 225.109375 L 140.859375 209.46875 C 139.757812 210.210938 138.683594 211.066406 137.65625 212.039062 " fill-opacity="1" fill-rule="nonzero"/><path fill="#ffffff" d="M 148.226562 205.917969 L 148.738281 224.886719 L 151.316406 224.816406 L 151.660156 204.992188 C 150.679688 205.199219 149.511719 205.496094 148.226562 205.917969 " fill-opacity="1" fill-rule="nonzero"/><path fill="#ffffff" d="M 161.046875 181.046875 C 163.199219 179.449219 165.410156 177.40625 167.199219 174.855469 L 131.8125 176.625 C 128.28125 176.800781 125.421875 179.5625 125.125 183.089844 L 123.34375 204.316406 L 127.894531 202.707031 L 131.761719 187.511719 L 136.980469 187.039062 L 137.269531 197.746094 C 138.75 196.5 140.039062 195.242188 141.128906 194.085938 L 141.257812 186.65625 L 147.691406 186.078125 L 147.734375 187.773438 C 149.25 187.328125 150.664062 186.863281 151.984375 186.382812 L 151.996094 185.691406 L 152.703125 185.632812 C 152.703125 185.632812 155.195312 184.765625 158.335938 182.863281 L 161.046875 181.046875 " fill-opacity="1" fill-rule="nonzero"/><path fill="#ffffff" d="M 169.269531 190.207031 L 170.191406 224.308594 L 172.769531 224.238281 L 173.40625 187.609375 C 171.964844 188.546875 170.574219 189.421875 169.269531 190.207031 " fill-opacity="1" fill-rule="nonzero"/><g clip-path="url(#58506ba408)"><path fill="#ffffff" d="M 309.074219 169.328125 L 192.332031 174.855469 C 189.339844 177.132812 176.867188 185.308594 176.867188 185.308594 L 179.867188 185.207031 L 180.917969 224.019531 L 183.492188 223.949219 L 184.171875 185.058594 L 190.59375 184.839844 L 191.644531 223.726562 L 194.222656 223.660156 L 194.898438 184.691406 L 201.316406 184.476562 L 202.371094 223.4375 L 204.949219 223.367188 L 205.625 184.328125 L 212.042969 184.109375 L 213.097656 223.148438 L 215.675781 223.078125 L 216.355469 183.960938 L 222.769531 183.742188 L 223.824219 222.855469 L 226.402344 222.785156 L 227.082031 183.597656 L 233.488281 183.378906 L 234.550781 222.566406 L 237.125 222.496094 L 237.8125 183.234375 L 244.21875 183.015625 L 245.277344 222.277344 L 247.855469 222.207031 L 248.539062 182.867188 L 254.941406 182.648438 L 256.003906 221.984375 L 258.582031 221.917969 L 259.265625 182.5 L 265.664062 182.285156 L 266.730469 221.695312 L 269.308594 221.625 L 269.996094 182.136719 L 276.390625 181.917969 L 277.457031 221.40625 L 280.035156 221.335938 L 280.722656 181.769531 L 287.113281 181.550781 L 288.183594 221.117188 L 290.761719 221.046875 L 291.449219 181.40625 L 297.839844 181.1875 L 298.914062 220.828125 L 301.488281 220.757812 L 302.175781 181.039062 L 304.175781 180.972656 C 306.972656 180.875 309.296875 183.105469 309.320312 185.902344 L 309.601562 221.714844 L 312.515625 221.714844 L 317.523438 178.375 C 318.097656 173.398438 314.074219 169.09375 309.074219 169.328125 " fill-opacity="1" fill-rule="nonzero"/></g><path fill="#ffffff" d="M 158.726562 197.265625 L 159.464844 224.597656 L 162.042969 224.527344 L 162.570312 194.039062 C 160.804688 195.191406 159.574219 196.289062 158.726562 197.265625 " fill-opacity="1" fill-rule="nonzero"/><g clip-path="url(#5370853e32)"><path fill="#ffffff" d="M 189.550781 165.269531 C 186.933594 165.269531 184.808594 163.144531 184.808594 160.523438 C 184.808594 157.90625 186.933594 155.78125 189.550781 155.78125 C 192.171875 155.78125 194.296875 157.90625 194.296875 160.523438 C 194.296875 163.144531 192.171875 165.269531 189.550781 165.269531 Z M 114 240.132812 C 105.621094 245.46875 95.40625 244.421875 91.183594 237.792969 C 86.964844 231.160156 90.332031 221.464844 98.710938 216.128906 C 107.085938 210.792969 117.300781 211.839844 121.523438 218.46875 C 125.746094 225.097656 122.378906 234.796875 114 240.132812 Z M 84.988281 174.589844 C 75.171875 176.101562 66.242188 171.027344 65.046875 163.261719 C 63.855469 155.492188 70.839844 147.972656 80.660156 146.460938 C 90.476562 144.949219 99.402344 150.023438 100.597656 157.789062 C 101.796875 165.558594 94.804688 173.078125 84.988281 174.589844 Z M 301.808594 114.652344 C 289.953125 118.605469 184.414062 153.78125 174.929688 154.96875 C 165.441406 156.152344 150.421875 158.921875 141.328125 153.78125 C 141.328125 153.78125 128.285156 158.921875 114.449219 156.550781 C 114.449219 156.550781 105.753906 141.136719 90.339844 139.15625 C 74.921875 137.179688 55.949219 144.292969 57.53125 163.664062 C 59.113281 183.03125 80.457031 183.429688 80.457031 183.429688 C 80.457031 183.429688 87.175781 182.636719 91.128906 190.148438 L 95.875 189.75 C 95.875 189.75 93.105469 175.128906 103.777344 169.59375 C 114.449219 164.058594 124.332031 156.550781 138.5625 164.847656 C 138.5625 164.847656 162.804688 156.019531 172.558594 167.21875 C 172.558594 167.21875 175.71875 182.636719 147.257812 190.542969 C 147.257812 190.542969 137.769531 205.167969 122.753906 207.539062 C 107.730469 209.910156 101.800781 202.402344 101.800781 202.402344 L 93.105469 206.75 C 93.105469 206.75 92.710938 210.703125 90.734375 214.257812 C 88.757812 217.816406 81.640625 220.1875 83.222656 238.765625 C 83.222656 238.765625 75.320312 251.019531 68.996094 253.390625 C 62.671875 255.761719 60.695312 258.136719 61.089844 261.691406 C 61.089844 261.691406 62.277344 264.921875 69.785156 259.550781 C 77.296875 254.183594 76.898438 249.832031 90.734375 248.648438 C 104.570312 247.464844 110.101562 250.621094 121.171875 243.902344 C 132.238281 237.183594 127.101562 219.398438 135.003906 211.097656 C 142.910156 202.796875 154.375 202.007812 154.375 202.007812 C 154.375 202.007812 152.792969 196.074219 164.253906 190.148438 C 175.71875 184.21875 201.015625 164.453125 201.015625 164.453125 L 312.484375 113.066406 C 312.484375 113.066406 313.667969 110.695312 301.808594 114.652344 " fill-opacity="1" fill-rule="nonzero"/></g></svg>