<svg xmlns="http://www.w3.org/2000/svg" xmlns:xlink="http://www.w3.org/1999/xlink" width="500" zoomAndPan="magnify" viewBox="0 0 375 374.999991" height="500" preserveAspectRatio="xMidYMid meet" version="1.0"><defs><g/></defs><g fill="#ffffff" fill-opacity="1"><g transform="translate(19.792972, 215.249986)"><g><path d="M 4.015625 0 L 4.015625 -1.34375 C 5.609375 -1.851562 6.644531 -2.921875 7.125 -4.546875 C 7.601562 -6.171875 7.84375 -8.703125 7.84375 -12.140625 L 7.84375 -49.0625 C 7.84375 -52.945312 7.601562 -56.003906 7.125 -58.234375 C 6.644531 -60.472656 5.925781 -62.132812 4.96875 -63.21875 C 4.007812 -64.300781 2.800781 -65.097656 1.34375 -65.609375 L 1.34375 -66.953125 L 15.6875 -66.953125 L 39.3125 -27.734375 L 61.78125 -66.953125 L 75.359375 -66.953125 L 75.359375 -65.609375 C 73.898438 -65.097656 72.691406 -64.300781 71.734375 -63.21875 C 70.773438 -62.132812 70.054688 -60.472656 69.578125 -58.234375 C 69.097656 -56.003906 68.859375 -52.945312 68.859375 -49.0625 L 68.859375 -12.140625 C 68.859375 -8.703125 69.097656 -6.171875 69.578125 -4.546875 C 70.054688 -2.921875 71.09375 -1.851562 72.6875 -1.34375 L 72.6875 0 L 54.890625 0 L 54.890625 -1.34375 C 56.484375 -1.851562 57.519531 -2.921875 58 -4.546875 C 58.476562 -6.171875 58.71875 -8.703125 58.71875 -12.140625 L 58.71875 -58.4375 L 35.765625 -18.171875 L 33.5625 -18.171875 L 9.5625 -57.578125 L 9.5625 -17.890625 C 9.5625 -13.992188 9.816406 -10.929688 10.328125 -8.703125 C 10.835938 -6.472656 11.632812 -4.816406 12.71875 -3.734375 C 13.800781 -2.648438 15.171875 -1.851562 16.828125 -1.34375 L 16.828125 0 Z M 4.015625 0 "/></g></g></g><g fill="#ffffff" fill-opacity="1"><g transform="translate(99.649587, 215.249986)"><g><path d="M -2.015625 0 L -2.015625 -1.34375 C -0.546875 -1.851562 0.835938 -2.835938 2.140625 -4.296875 C 3.453125 -5.765625 4.75 -8.09375 6.03125 -11.28125 L 23.90625 -55.65625 C 24.613281 -57.445312 24.550781 -59.171875 23.71875 -60.828125 L 22.46875 -63.5 L 31.84375 -67.71875 L 55.5625 -11.1875 C 56.90625 -8.0625 58.195312 -5.765625 59.4375 -4.296875 C 60.6875 -2.835938 61.851562 -1.851562 62.9375 -1.34375 L 62.9375 0 L 45.53125 0 L 45.53125 -1.34375 C 47.125 -1.851562 47.710938 -2.835938 47.296875 -4.296875 C 46.878906 -5.765625 46.003906 -8.0625 44.671875 -11.1875 L 38.921875 -24.96875 L 13.390625 -24.96875 L 7.84375 -11.28125 C 6.570312 -8.09375 6.0625 -5.734375 6.3125 -4.203125 C 6.5625 -2.671875 7.484375 -1.71875 9.078125 -1.34375 L 9.078125 0 Z M 13.96875 -26.5 L 38.25 -26.5 L 25.921875 -56.046875 Z M 13.96875 -26.5 "/></g></g></g><g fill="#ffffff" fill-opacity="1"><g transform="translate(161.143964, 215.249986)"><g><path d="M 38.640625 0 L 38.640625 -1.34375 C 40.234375 -1.851562 40.675781 -2.757812 39.96875 -4.0625 C 39.269531 -5.375 38 -7.492188 36.15625 -10.421875 L 23.90625 -30.796875 L 10.140625 -10.140625 C 8.222656 -7.265625 7.359375 -5.171875 7.546875 -3.859375 C 7.742188 -2.554688 8.894531 -1.71875 11 -1.34375 L 11 0 L -1.34375 0 L -1.34375 -1.34375 C 0.0625 -1.851562 1.515625 -2.726562 3.015625 -3.96875 C 4.515625 -5.207031 6.21875 -7.265625 8.125 -10.140625 L 22.953125 -32.421875 L 8.421875 -56.53125 C 6.628906 -59.519531 5.046875 -61.664062 3.671875 -62.96875 C 2.304688 -64.28125 1.082031 -65.160156 0 -65.609375 L 0 -66.953125 L 17.796875 -66.953125 L 17.796875 -65.609375 C 16.191406 -65.097656 15.753906 -64.203125 16.484375 -62.921875 C 17.222656 -61.648438 18.488281 -59.519531 20.28125 -56.53125 L 30.609375 -39.40625 L 42.171875 -56.8125 C 44.085938 -59.675781 44.945312 -61.757812 44.75 -63.0625 C 44.5625 -64.375 43.414062 -65.222656 41.3125 -65.609375 L 41.3125 -66.953125 L 53.65625 -66.953125 L 53.65625 -65.609375 C 52.25 -65.160156 50.796875 -64.296875 49.296875 -63.015625 C 47.804688 -61.742188 46.101562 -59.675781 44.1875 -56.8125 L 31.5625 -37.78125 L 48.015625 -10.421875 C 49.859375 -7.492188 51.460938 -5.375 52.828125 -4.0625 C 54.203125 -2.757812 55.398438 -1.851562 56.421875 -1.34375 L 56.421875 0 Z M 38.640625 0 "/></g></g></g><g fill="#ffffff" fill-opacity="1"><g transform="translate(215.943777, 215.249986)"><g><path d="M 39.40625 0.953125 C 35.320312 0.953125 31.269531 0.269531 27.25 -1.09375 C 23.238281 -2.46875 19.554688 -4.570312 16.203125 -7.40625 C 12.859375 -10.25 10.179688 -13.851562 8.171875 -18.21875 C 6.171875 -22.582031 5.171875 -27.765625 5.171875 -33.765625 C 5.171875 -38.484375 6 -42.894531 7.65625 -47 C 9.3125 -51.113281 11.648438 -54.71875 14.671875 -57.8125 C 17.703125 -60.90625 21.320312 -63.328125 25.53125 -65.078125 C 29.738281 -66.835938 34.363281 -67.71875 39.40625 -67.71875 C 43.414062 -67.71875 47.445312 -67.015625 51.5 -65.609375 C 55.550781 -64.203125 59.234375 -62.082031 62.546875 -59.25 C 65.859375 -56.414062 68.519531 -52.828125 70.53125 -48.484375 C 72.539062 -44.148438 73.546875 -39.050781 73.546875 -33.1875 C 73.546875 -27.382812 72.539062 -22.332031 70.53125 -18.03125 C 68.519531 -13.726562 65.84375 -10.171875 62.5 -7.359375 C 59.15625 -4.554688 55.472656 -2.46875 51.453125 -1.09375 C 47.429688 0.269531 43.414062 0.953125 39.40625 0.953125 Z M 15.109375 -39.59375 C 15.429688 -34.8125 16.40625 -30.171875 18.03125 -25.671875 C 19.65625 -21.179688 21.773438 -17.164062 24.390625 -13.625 C 27.003906 -10.09375 30.046875 -7.273438 33.515625 -5.171875 C 36.992188 -3.066406 40.773438 -2.015625 44.859375 -2.015625 C 49.765625 -2.015625 53.648438 -3.113281 56.515625 -5.3125 C 59.390625 -7.507812 61.414062 -10.390625 62.59375 -13.953125 C 63.769531 -17.523438 64.203125 -21.414062 63.890625 -25.625 C 63.503906 -30.726562 62.546875 -35.640625 61.015625 -40.359375 C 59.484375 -45.078125 57.425781 -49.316406 54.84375 -53.078125 C 52.257812 -56.835938 49.242188 -59.800781 45.796875 -61.96875 C 42.359375 -64.144531 38.570312 -65.234375 34.4375 -65.234375 C 30.09375 -65.234375 26.421875 -64.179688 23.421875 -62.078125 C 20.429688 -59.972656 18.21875 -56.988281 16.78125 -53.125 C 15.351562 -49.269531 14.796875 -44.757812 15.109375 -39.59375 Z M 15.109375 -39.59375 "/></g></g></g><g fill="#ffffff" fill-opacity="1"><g transform="translate(291.879006, 215.249986)"><g><path d="M 54.890625 0.765625 L 10.046875 -55.859375 L 10.046875 -17.890625 C 10.046875 -13.992188 10.300781 -10.929688 10.8125 -8.703125 C 11.320312 -6.472656 12.117188 -4.816406 13.203125 -3.734375 C 14.285156 -2.648438 15.65625 -1.851562 17.3125 -1.34375 L 17.3125 0 L 4.5 0 L 4.5 -1.34375 C 6.09375 -1.851562 7.128906 -2.921875 7.609375 -4.546875 C 8.085938 -6.171875 8.328125 -8.703125 8.328125 -12.140625 L 8.328125 -54.796875 C 8.328125 -58.242188 8.003906 -60.78125 7.359375 -62.40625 C 6.722656 -64.03125 5.382812 -65.097656 3.34375 -65.609375 L 3.34375 -66.953125 L 14.15625 -66.953125 L 54.328125 -16.640625 L 54.328125 -49.0625 C 54.328125 -52.945312 54.070312 -56.003906 53.5625 -58.234375 C 53.050781 -60.472656 52.253906 -62.132812 51.171875 -63.21875 C 50.085938 -64.300781 48.71875 -65.097656 47.0625 -65.609375 L 47.0625 -66.953125 L 59.96875 -66.953125 L 59.96875 -65.609375 C 58.375 -65.097656 57.335938 -64.03125 56.859375 -62.40625 C 56.378906 -60.78125 56.140625 -58.242188 56.140625 -54.796875 L 56.140625 0.765625 Z M 54.890625 0.765625 "/></g></g></g></svg>